<svg id="Ebene_1" data-name="Ebene 1" xmlns="http://www.w3.org/2000/svg" viewBox="0 0 1536.24 321.64"><defs><style>.cls-1{fill:#ef820d;}</style></defs><path class="cls-1" d="M522.32,94.58h12.55v55.14a53.26,53.26,0,0,1,16.77-15,40.77,40.77,0,0,1,19.81-5,34.57,34.57,0,0,1,19.42,5.56,33.2,33.2,0,0,1,12.5,14.93q4,9.38,4,29.36v50.21H594.86V183.26q0-16.86-1.35-22.51-2.32-9.67-8.47-14.57t-16.1-4.88a30.92,30.92,0,0,0-20.39,7.53,35.26,35.26,0,0,0-11.88,18.65q-1.8,7.17-1.8,26.54v35.77H522.32Z"/><path class="cls-1" d="M771.52,197.42,782.1,203a57.7,57.7,0,0,1-12,16.5A47.72,47.72,0,0,1,754.73,229a53.56,53.56,0,0,1-19.29,3.27q-23.88,0-37.34-15.64t-13.46-35.37A52.14,52.14,0,0,1,696,148.2q14.44-18.47,38.68-18.47,24.94,0,39.84,18.92Q785.15,162,785.33,182H697.55q.36,17,10.87,27.87a34.65,34.65,0,0,0,25.94,10.87,41.87,41.87,0,0,0,14.5-2.59,38.2,38.2,0,0,0,12-6.88Q765.78,207,771.52,197.42Zm0-26.27q-2.5-10-7.31-16.05a34.72,34.72,0,0,0-12.71-9.68,38.87,38.87,0,0,0-16.6-3.67A35.74,35.74,0,0,0,710.21,151q-7.55,6.72-11.4,20.17Z"/><path class="cls-1" d="M861.94,94.58h12.55V229.79H861.94Z"/><path class="cls-1" d="M955.85,132.24H968.4v17.93a50.48,50.48,0,0,1,17.11-15.33,45.44,45.44,0,0,1,21.58-5.11,48.16,48.16,0,0,1,35.56,15,49.45,49.45,0,0,1,14.78,36.05q0,21.51-14.64,36.53t-35.34,15a47.43,47.43,0,0,1-21.4-4.84A54,54,0,0,1,968.4,213v52.45H955.85Zm50.21,9.59a36.89,36.89,0,0,0-27.42,11.38q-11.13,11.37-11.14,28.3a40.17,40.17,0,0,0,5,20,36.22,36.22,0,0,0,14.22,14.06,39.4,39.4,0,0,0,19.55,5.2,36.9,36.9,0,0,0,19-5.24,38.46,38.46,0,0,0,14.17-14.65,39.55,39.55,0,0,0,0-39.4,37.79,37.79,0,0,0-33.41-19.62Z"/><path class="cls-1" d="M1136.82,229.79V94.58h12.55V149A53,53,0,0,1,1167,134.53a47.8,47.8,0,0,1,21.4-4.8q20.7,0,35.34,15t14.65,36.45a49.55,49.55,0,0,1-14.79,36.13,48.15,48.15,0,0,1-35.55,15,45.45,45.45,0,0,1-21.59-5.11,50.48,50.48,0,0,1-17.11-15.33v17.93ZM1187,220.2a37.81,37.81,0,0,0,33.41-19.64,39.82,39.82,0,0,0,0-39.54,38.49,38.49,0,0,0-14.17-14.66,36.9,36.9,0,0,0-19-5.24,39.13,39.13,0,0,0-19.55,5.24,36.63,36.63,0,0,0-14.22,14.12,40.28,40.28,0,0,0-5,20q0,17,11.14,28.33A36.86,36.86,0,0,0,1187,220.2Z"/><path class="cls-1" d="M1362.53,129.73q22.54,0,37.37,16.32a50.77,50.77,0,0,1,13.47,35.24q0,20.43-14.24,35.73t-36.6,15.28q-22.46,0-36.69-15.28t-14.23-35.73a50.66,50.66,0,0,1,13.47-35.15Q1339.9,129.73,1362.53,129.73Zm0,12.28q-15.66,0-26.91,11.57a38.69,38.69,0,0,0-11.24,28,39.67,39.67,0,0,0,5.13,19.73,36.24,36.24,0,0,0,13.85,14.12,39.37,39.37,0,0,0,38.33,0,36.33,36.33,0,0,0,13.86-14.12,39.67,39.67,0,0,0,5.13-19.73,38.61,38.61,0,0,0-11.29-28Q1378.05,142,1362.49,142Z"/><path class="cls-1" d="M1486.93,132.24h12.82V146.5q5.73-8.43,12.1-12.6a23.89,23.89,0,0,1,13.27-4.17,22.93,22.93,0,0,1,11.12,3.32l-6.55,10.58a17.35,17.35,0,0,0-6.63-1.71q-6.29,0-12.1,5.16t-8.88,16q-2.32,8.34-2.33,33.72v33h-12.82Z"/><rect class="cls-1" x="105.79" y="63.92" width="15.59" height="15.59"/><rect class="cls-1" x="130" y="63.93" width="15.59" height="15.59"/><rect class="cls-1" x="105.79" y="87.26" width="15.59" height="15.59"/><rect class="cls-1" x="130" y="87.26" width="15.59" height="15.59"/><rect class="cls-1" x="314.97" y="63.93" width="15.59" height="15.59"/><rect class="cls-1" x="339.18" y="63.93" width="15.59" height="15.59"/><rect class="cls-1" x="314.97" y="87.26" width="15.59" height="15.59"/><rect class="cls-1" x="339.18" y="87.26" width="15.59" height="15.59"/><path class="cls-1" d="M424.53,65.18V12H409.21v42L334.82,0,231.36,76.81,125.69,0l-74.35,54V12H36V65.18L0,91.36,230.28,321.64,460.56,91.36ZM230.28,300l-83.71-83.71,83.71-60.81L314,216.26Zm0-163.46L188.36,167V140.31H173v37.78L135.6,205.3,23.52,93.21,125.69,19,282.34,132.79V113.85l-38-27.6L334.92,19,437,93.21,325,205.3Z"/><rect class="cls-1" x="211.52" y="195.34" width="15.59" height="15.59"/><rect class="cls-1" x="235.73" y="195.34" width="15.59" height="15.59"/><rect class="cls-1" x="211.52" y="218.67" width="15.59" height="15.59"/><rect class="cls-1" x="235.73" y="218.67" width="15.59" height="15.59"/></svg>